<svg xmlns="http://www.w3.org/2000/svg" width="1440" height="208.489" viewBox="0 0 1440 208.489"><path d="M1439.782,18.019c0-.024.08-.047.218-.068V13.519c-.077,1.074-.168,1.858-.3,1.858-.411,0-.426,5.717-.809,6.117h-.069c-.4-.8-.407-19.567-.823-19.567s-.423,3.315-.846,3.315-.421-2.968-.844-2.968-.422,14.09-.843,14.09-.425-2.178-.849-2.178-.425.733-.849.733-.425-5.455-.85-5.455-.425-7.784-.851-7.784-.425,18.923-.849,18.923-.425-.042-.849-.042-.424-18.893-.847-18.893-.424,17.93-.848,17.93-.425-18.074-.849-18.074-.425,2.81-.849,2.81c-.355,0-.413,12.879-.67,17.161h-.355c-.26-4.479-.318-18.415-.674-18.415-.424,0-.424,14.551-.848,14.551s-.423-3.471-.846-3.471-.422,6.285-.846,6.285-.423-12.783-.845-12.783-.422.885-.846.885c-.312,0-.393,8.513-.587,12.948h-.6c-.142-2.473-.241-5.8-.507-5.8-.424,0-.424,3.595-.848,3.595s-.425-3.138-.849-3.138-.425,3.049-.849,3.049-.424-2.71-.848-2.71-.422-8.17-.846-8.17-.423-6.135-.845-6.135-.421,12.732-.844,12.732-.421-5.972-.843-5.972-.421-1.6-.843-1.6-.421-.8-.843-.8-.422-3.239-.843-3.239-.422,7.236-.843,7.236-.421-7.8-.843-7.8-.422,8.649-.843,8.649S1407.1.3,1406.682.3s-.423,7.918-.844,7.918-.423-3.859-.846-3.859-.423,8.632-.846,8.632-.422,1.984-.846,1.984-.424-6.61-.849-6.61-.423,1.631-.845,1.631-.422-1.2-.845-1.2-.421,8.932-.844,8.932c-.318,0-.4,2.527-.6,3.762h-.395c-.279-2.686-.328-12.645-.693-12.645-.42,0-.42,1.467-.84,1.467s-.42,11.031-.839,11.031-.424-3.675-.846-3.675-.422-8-.845-8-.424-.237-.846-.237-.424.331-.846.331-.424-5.309-.848-5.309-.424,13.379-.848,13.379-.422-8.994-.846-8.994c-.314,0-.4,8.352-.589,12.654h-.553c-.168-3.233-.258-8.458-.549-8.458-.424,0-.424,7.153-.846,7.153s-.423-.646-.844-.646-.423-1.71-.845-1.71-.423-4.968-.845-4.968c-.285,0-.378,5.245-.539,8.63h-.624c-.152-3.041-.248-7.468-.526-7.468-.423,0-.423-1.194-.844-1.194s-.422,7.227-.845,7.227-.423-4.751-.845-4.751-.423-8.358-.845-8.358-.423,11.517-.845,11.517c-.264,0-.363,1.73-.5,3.028h-1.426c-.208-4.474-.285-14.038-.609-14.038-.424,0-.424-4.954-.847-4.954s-.422-1.647-.846-1.647-.423,19.978-.846,19.978-.422-5.871-.845-5.871-.423-1.813-.845-1.813-.423-5.786-.844-5.786-.422-1.786-.845-1.786c-.357,0-.412,12.2-.677,15.916h-.328c-.269-3.86-.321-16.928-.682-16.928-.422,0-.422.85-.843.85s-.423-4.9-.844-4.9-.421,3.812-.843,3.812-.421.8-.844.8-.421,7.744-.843,7.744-.421-10.507-.843-10.507c-.395,0-.42,16.954-.767,19.136h-.168c-.333-1.71-.363-12.6-.752-12.6-.421,0-.421-6.793-.844-6.793s-.422,17.886-.843,17.886-.423-10.056-.844-10.056-.422-.155-.844-.155-.422,3.424-.845,3.424-.422-11.444-.844-11.444-.423,13.029-.845,13.029c-.3,0-.39,4.283-.57,6.7h-1.3c-.252-4.329-.312-17.134-.663-17.134-.424,0-.424-3.227-.846-3.227s-.424-.211-.846-.211-.423,3.3-.845,3.3-.422,10.016-.845,10.016-.422-10.866-.844-10.866c-.341,0-.406,13.109-.643,18.119h-.462c-.19-3.184-.272-9.224-.583-9.224-.421,0-.421,5.96-.843,5.96s-.421-10.39-.843-10.39-.421,4.981-.843,4.981c-.35,0-.41,6.479-.662,8.673h-.312c-.295-3.469-.339-18.267-.71-18.267-.422,0-.422,16.722-.843,16.722s-.42-7.639-.842-7.639-.42,2.787-.842,2.787-.42,2.074-.842,2.074c-.259,0-.357,2.439-.494,4.322h-.578c-.212-4.492-.285-14.473-.611-14.473-.422,0-.422,5.641-.842,5.641s-.42,7.4-.842,7.4-.42-2.92-.84-2.92-.421-4.858-.842-4.858-.42,7.231-.841,7.231c-.2,0-.3.959-.4,1.979h-.662c-.219-5.37-.29-17.9-.621-17.9-.42,0-.42,13.6-.842,13.6s-.42-3.592-.842-3.592-.42-7.753-.842-7.753c-.346,0-.407,11.544-.653,15.646h-.581c-.116-.892-.22-1.868-.449-1.868-.421,0-.421-3.1-.843-3.1s-.421,3.718-.843,3.718-.421-14.611-.843-14.611-.421,4.184-.843,4.184-.421,8.471-.843,8.471-.421-.232-.844-.232c-.237,0-.341,1.836-.462,3.435h-.721c-.141-2.182-.24-5.112-.505-5.112-.422,0-.422-8.619-.844-8.619s-.422,11.739-.845,11.739-.423-8.333-.845-8.333c-.331,0-.4,7.185-.619,10.324h-.416c-.246-4.116-.309-15.677-.655-15.677-.422,0-.422-3.994-.844-3.994s-.423,14.364-.844,14.364-.421-.275-.844-.275-.421-5.765-.843-5.765-.421-9.009-.843-9.009S1313.42,11.48,1313,11.48s-.42,9.213-.842,9.213-.421-3.092-.842-3.092-.422-7.17-.842-7.17-.42-4.885-.842-4.885-.42,14.26-.841,14.26-.42-11.17-.84-11.17-.42-7.174-.841-7.174-.42,16.293-.841,16.293-.419-16.188-.839-16.188-.42,9.242-.839,9.242-.42,8.589-.841,8.589-.419-16.537-.838-16.537-.42,5.588-.839,5.588-.42-4.769-.839-4.769-.419,14.15-.838,14.15-.42,1.345-.839,1.345-.419-1.25-.838-1.25-.419-15.85-.838-15.85-.42,16.549-.839,16.549-.419-.868-.838-.868-.419-3.7-.838-3.7-.419-7.328-.838-7.328-.419,13.082-.838,13.082-.419-8.555-.838-8.555-.419-2.067-.837-2.067-.419,3.4-.838,3.4-.419,3.331-.838,3.331c-.258,0-.359,3.158-.495,5.58h-.6c-.193-4.777-.274-14.161-.586-14.161-.419,0-.419.908-.838.908s-.419,10.192-.838,10.192-.419,2.745-.838,2.745-.419-10.294-.838-10.294-.419-.762-.838-.762-.419-9.312-.839-9.312-.419,20.28-.838,20.28-.419-7.782-.838-7.782-.42,2.681-.839,2.681c-.324,0-.4,3.779-.608,5.506h-.391c-.268-3.1-.321-13.706-.679-13.706-.42,0-.42-1.643-.839-1.643s-.42,13.017-.839,13.017-.42-3.842-.839-3.842-.42.74-.841.74-.419.248-.839.248-.42.632-.84.632-.42-13.788-.839-13.788-.421-.123-.84-.123-.422,3.376-.842,3.376-.42,1.506-.841,1.506-.42,5.949-.842,5.949-.42-7.145-.841-7.145-.421,14.09-.843,14.09-.42-11.352-.842-11.352-.421,7.151-.842,7.151-.421-10.749-.843-10.749-.421,13.17-.843,13.17-.421-2.279-.843-2.279-.422-15.526-.844-15.526-.421,6.119-.844,6.119c-.326,0-.4,9.754-.612,14.156h-.466c-.21-4.272-.284-13.546-.609-13.546-.422,0-.422,7.177-.843,7.177s-.422,4.62-.842,4.62c-.184,0-.288.822-.381,1.748h-.781c-.151-2.786-.247-6.824-.523-6.824-.42,0-.42-6.066-.842-6.066-.317,0-.395,8.637-.594,12.89h-.694c-.1-.935-.2-1.8-.394-1.8-.42,0-.42.389-.841.389s-.42-8.288-.84-8.288-.419,2.052-.839,2.052-.42-4.619-.839-4.619c-.391,0-.418,10.791-.759,12.265h-.151c-.349-1.715-.374-16.006-.768-16.006-.419,0-.419-4.505-.838-4.505s-.419,16.232-.838,16.232-.419,3.669-.838,3.669S1247.061,9,1246.64,9s-.42-5.716-.84-5.716-.421,10.443-.842,10.443-.421-5.8-.842-5.8-.42,8.292-.842,8.292-.42-4.737-.842-4.737-.42,1.258-.84,1.258c-.4,0-.42,7.86-.774,8.753h-.126c-.363-1.054-.383-11.865-.783-11.865-.42,0-.42-5.434-.842-5.434s-.42,6.309-.84,6.309-.422-.41-.842-.41-.421-8.78-.842-8.78-.42.088-.842.088-.42-1.242-.842-1.242-.42,13.032-.84,13.032-.422-.267-.843-.267-.42-2.823-.842-2.823-.42,7.284-.842,7.284c-.234,0-.339,2.18-.457,4.106h-.754c-.125-2.126-.228-4.646-.471-4.646-.35,0-.41,3.482-.664,4.646h-.319c-.288-1.677-.333-8.326-.7-8.326-.42,0-.42-8.372-.842-8.372s-.421,14.8-.842,14.8-.421-5.379-.843-5.379c-.359,0-.413,5.6-.68,7.275h-.413c-.2-.867-.276-2.6-.591-2.6-.421,0-.421-2.613-.843-2.613s-.421,1.268-.843,1.268-.421-11.754-.843-11.754-.422,4.087-.844,4.087c-.4,0-.42,10.685-.79,11.608h-.1c-.38-1.157-.393-17.344-.8-17.344s-.422,9.28-.843,9.28-.422,2.829-.843,2.829-.421-12.5-.843-12.5-.422-.587-.843-.587-.422,7.869-.843,7.869-.421-5.833-.843-5.833-.422-4.291-.843-4.291-.42,1.586-.842,1.586c-.342,0-.406,13.8-.644,18.989h-.395c-.239-5.275-.3-19.5-.646-19.5-.42,0-.42-1.045-.842-1.045s-.42,16.119-.841,16.119-.42-1.787-.842-1.787-.42-6.486-.842-6.486-.42,2.592-.842,2.592-.42-4.759-.84-4.759-.422-1.423-.842-1.423-.42-4.148-.842-4.148c-.352,0-.409,15.38-.664,20.432h-1.242c-.215-2.589-.289-8.492-.617-8.492-.42,0-.42-4.772-.841-4.772s-.42-8.187-.84-8.187c-.354,0-.41,16.24-.668,21.451h-.448c-.178-2.341-.264-6.441-.566-6.441-.42,0-.42-10.489-.84-10.489s-.42,10.707-.84,10.707-.42-12.569-.841-12.569c-.391,0-.418,16.487-.759,18.791h-.178c-.327-1.908-.359-13.386-.744-13.386-.42,0-.42-3.246-.841-3.246s-.42-3.588-.84-3.588-.42,10.609-.841,10.609-.42,3.839-.84,3.839-.42,2.242-.84,2.242-.42-16.927-.84-16.927-.42,7.592-.841,7.592-.42-7.512-.84-7.512-.42,18.132-.84,18.132-.42-10.768-.84-10.768-.42-.251-.841-.251-.42,11.159-.84,11.159c-.2,0-.307,1.034-.409,2.1h-.751c-.15-2.517-.246-6.157-.521-6.157-.419,0-.419,5.875-.841,5.875s-.42-11.834-.84-11.834-.42,2.98-.84,2.98-.42-1.64-.84-1.64-.42-.368-.841-.368c-.375,0-.416,9.158-.718,11.144h-.277c-.273-1.44-.326-6.554-.687-6.554-.42,0-.42-6.468-.84-6.468s-.42,1.725-.842,1.725-.42-9.7-.841-9.7-.42,6.99-.842,6.99-.42,9.714-.841,9.714-.421-.788-.842-.788-.42-2.033-.842-2.033-.42-5.411-.84-5.411-.421,5.861-.842,5.861-.421-11.61-.842-11.61-.421,17.393-.842,17.393c-.172,0-.273.4-.363.874h-.654c-.257-4.843-.314-19.711-.667-19.711-.335,0-.4,14.008-.63,19.711h-.449c-.206-4.711-.282-14.786-.605-14.786-.42,0-.42,10.322-.842,10.322-.263,0-.362,2.552-.5,4.464h-.744c-.112-1.191-.216-2.453-.44-2.453-.42,0-.42-12.5-.842-12.5-.363,0-.413,11.681-.689,14.954h-.4c-.2-1.547-.277-4.667-.594-4.667-.417,0-.422,4.556-.829,4.667h-.026c-.41-.219-.414-12.5-.832-12.5s-.42,1.435-.842,1.435-.421-5.1-.843-5.1-.421,9.922-.843,9.922-.42-4.8-.842-4.8-.421,9.514-.842,9.514-.421-9.2-.843-9.2-.42,4.358-.842,4.358-.42-4.686-.842-4.686-.42,8.542-.842,8.542-.42-9.458-.842-9.458-.42,6.867-.841,6.867-.421-10.421-.842-10.421-.42-5.149-.841-5.149-.421,8.415-.842,8.415-.42,4.308-.84,4.308-.42-9.677-.841-9.677-.42,14.564-.84,14.564-.421-4.627-.842-4.627-.42-7.115-.84-7.115-.419,2.254-.839,2.254-.42,11.214-.84,11.214c-.161,0-.26.6-.345,1.338h-1.568c-.209-4.5-.284-14.323-.608-14.323-.353,0-.41,10.831-.667,14.323h-.413c-.2-2.06-.281-6.379-.6-6.379-.419,0-.419-12.009-.839-12.009-.328,0-.4,12.792-.616,18.388h-.652c-.1-1.2-.207-2.378-.412-2.378-.419,0-.419-9.853-.839-9.853s-.42-3.226-.839-3.226-.42,2.391-.839,2.391-.42,5.017-.84,5.017-.419,6.4-.839,6.4-.419-4.517-.839-4.517-.419-2.45-.839-2.45-.419,3.312-.839,3.312-.419-9.555-.839-9.555-.419,3.613-.839,3.613-.419-4.539-.839-4.539-.419-2.75-.839-2.75-.419,3.554-.839,3.554-.419,8.427-.838,8.427-.42-9.5-.839-9.5-.42,9.085-.839,9.085c-.3,0-.384,4.4-.56,6.964h-.469c-.243-5.076-.305-19.184-.65-19.184-.419,0-.419,17.116-.838,17.116s-.42-13.57-.839-13.57-.42,1.729-.839,1.729-.419,3.924-.839,3.924-.419,1.779-.838,1.779-.42,2.83-.839,2.83-.42-15.172-.839-15.172-.419,17.549-.839,17.549-.419-14.742-.839-14.742c-.386,0-.417,15.351-.749,17.742h-.26c-.26-1.051-.316-4.384-.669-4.384-.42,0-.42-1.489-.839-1.489s-.419-2.9-.839-2.9-.419,8.039-.839,8.039-.419-17.352-.839-17.352-.419,7.386-.838,7.386c-.3,0-.388,6.86-.568,10.695h-.49c-.22-5.7-.29-19.119-.62-19.119-.42,0-.42,15.235-.839,15.235s-.42-6.476-.839-6.476c-.331,0-.4,7.249-.619,10.361h-.431c-.227-3.375-.295-11.727-.63-11.727-.419,0-.419-.106-.839-.106s-.419,9.642-.839,9.642-.42-3.956-.839-3.956c-.321,0-.4,4.181-.6,6.146h-.39c-.275-3.866-.326-17.683-.687-17.683-.419,0-.419,6.045-.839,6.045s-.42-.321-.84-.321-.419,2.541-.839,2.541c-.392,0-.418,8.332-.764,9.418h-.151c-.347-1.135-.371-10.054-.765-10.054-.42,0-.42-8.626-.84-8.626s-.42,18.5-.839,18.5-.42-17.926-.841-17.926-.42,14.277-.84,14.277-.42-11.8-.84-11.8-.42,2.659-.84,2.659c-.361,0-.412,10.115-.686,12.968h-1.2c-.232-5.864-.3-20.838-.636-20.838-.42,0-.42,15.863-.84,15.863s-.422,4.771-.842,4.771-.42-11.513-.841-11.513-.42.477-.842.477-.42,6.086-.84,6.086-.42-12.425-.842-12.425-.42,15.911-.842,15.911-.42-13.537-.84-13.537-.421,3.8-.842,3.8-.421-4.654-.842-4.654-.421,7.5-.842,7.5-.421-9.812-.843-9.812-.42,8.562-.842,8.562-.421,6.47-.842,6.47-.422-17.254-.843-17.254-.421,14.754-.842,14.754-.421-14.64-.843-14.64-.421,3.964-.842,3.964-.421-3.691-.843-3.691-.42,8.447-.842,8.447S1065.424,8.1,1065,8.1s-.42-5.755-.842-5.755-.42,2.377-.842,2.377-.42,6.421-.841,6.421-.42-3.978-.842-3.978-.42.513-.84.513-.42,13.651-.842,13.651-.42-8.187-.841-8.187c-.377,0-.417,6.925-.725,8.35h-.314c-.236-.721-.3-2.623-.641-2.623-.42,0-.42-4.152-.84-4.152s-.42,4.946-.841,4.946c-.227,0-.331.951-.445,1.829h-.745c-.134-1.25-.234-2.856-.491-2.856-.42,0-.42-10.356-.839-10.356s-.42,2.547-.84,2.547c-.392,0-.418,9.435-.764,10.664h-.133c-.364-1.637-.383-19.074-.783-19.074-.42,0-.42-1.311-.839-1.311s-.42,20.04-.839,20.04-.42-10.494-.84-10.494-.419,3.2-.839,3.2-.419-11.064-.839-11.064-.419,16.625-.838,16.625-.42-8.589-.839-8.589-.42,6.667-.839,6.667-.419,2.4-.839,2.4-.419-19.338-.839-19.338c-.349,0-.407,15.7-.66,20.939h-.432c-.193-2.922-.273-8.625-.585-8.625-.419,0-.419-2.807-.838-2.807s-.419-7.136-.838-7.136-.42,16.608-.839,16.608c-.192,0-.3.943-.394,1.959h-.666c-.218-5.507-.289-18.249-.617-18.249-.419,0-.419,18.068-.838,18.068s-.419-3.257-.838-3.257-.419-16.367-.838-16.367-.419,13.151-.838,13.151-.419,3.187-.838,3.187-.419-8.858-.838-8.858-.419-2.814-.838-2.814c-.328,0-.4,10.57-.617,15.138h-.423c-.233-5.329-.3-19.155-.637-19.155s-.407,14.433-.662,19.155H1027c-.213-4.911-.285-15.912-.611-15.912-.418,0-.418,8.4-.837,8.4s-.419-8.162-.838-8.162-.418-3.781-.837-3.781-.419,2.347-.838,2.347-.418,1-.837,1-.419,11.7-.837,11.7c-.257,0-.356,2.485-.491,4.415h-.583c-.2-4.381-.281-13.709-.6-13.709-.419,0-.419,12.875-.838,12.875-.179,0-.281.391-.372.834h-.637c-.257-4.152-.313-17.03-.665-17.03-.419,0-.419-1.661-.837-1.661s-.419,3.134-.838,3.134-.418,11.057-.837,11.057-.418-11.925-.837-11.925-.418-.823-.837-.823-.419,11.489-.837,11.489-.419.976-.837.976-.419-6.907-.837-6.907-.419,2.249-.837,2.249-.419-8.71-.838-8.71-.418-2.421-.837-2.421-.418,13.87-.837,13.87-.418-3.629-.837-3.629-.418-2.384-.837-2.384c-.307,0-.389,8.319-.577,12.716h-.544c-.171-3.66-.258-9.812-.553-9.812-.418,0-.418,6.071-.837,6.071s-.418-12.154-.837-12.154-.418,7.417-.837,7.417-.418-11.18-.837-11.18-.418,14.911-.837,14.911S999.184.134,998.765.134s-.418,13.585-.837,13.585-.418,3.613-.837,3.613-.418-2.888-.837-2.888-.419-3.31-.837-3.31S995,8,994.58,8s-.419,7.123-.837,7.123-.419-12.814-.837-12.814-.419,7.708-.837,7.708-.419,6.5-.838,6.5-.418-4.732-.837-4.732-.418-4.96-.837-4.96-.418,5.127-.837,5.127c-.328,0-.4,6.676-.618,9.546h-.407c-.243-3.717-.3-14.165-.648-14.165-.419,0-.419,14.121-.837,14.121s-.419-14.628-.838-14.628-.418,14.32-.837,14.32-.419-4.368-.837-4.368-.419,3.368-.838,3.368-.418-1.98-.837-1.98S981.6,15,981.185,15s-.419-12.746-.838-12.746-.418,17.2-.837,17.2-.419-16-.837-16-.419-3.282-.838-3.282c-.328,0-.4,14.892-.617,21.323h-1.18c-.3-2.724-.342-15.343-.716-15.343-.419,0-.419-2.175-.837-2.175s-.419,10.745-.838,10.745-.419-10.592-.838-10.592-.419-.166-.837-.166-.419,15.142-.838,15.142S970.714,1,970.295,1s-.419-.946-.838-.946-.419,10.286-.838,10.286-.419-9.311-.838-9.311-.419,15.272-.838,15.272S966.523,5.83,966.1,5.83s-.419,14.613-.838,14.613-.419-8.207-.838-8.207-.419-1.955-.838-1.955c-.3,0-.386,7.166-.565,11.213H962.4c-.133-2.284-.233-5.187-.488-5.187-.336,0-.4,3.72-.633,5.187h-.54c-.141-.559-.24-1.312-.5-1.312s-.359.745-.5,1.312h-.517c-.255-1.966-.313-7.96-.665-7.96-.419,0-.419-5.79-.838-5.79s-.419,7.793-.839,7.793S956.46.471,956.04.471c-.379,0-.416,17.673-.73,21.023h-.261c-.275-2.1-.326-9.688-.687-9.688-.42,0-.42,4.555-.839,4.555s-.42,4.222-.839,4.222S952.264,1,951.845,1s-.42,18.677-.839,18.677-.42,1.379-.839,1.379-.42-.484-.839-.484c-.19,0-.293.439-.389.917h-1.057c-.063-.118-.136-.2-.234-.2-.42,0-.42-19.789-.841-19.789-.332,0-.4,14.083-.624,19.988h-.567c-.134-2.161-.234-4.9-.489-4.9-.311,0-.392,3.227-.583,4.9h-.485c-.212-2.034-.286-6.528-.611-6.528-.42,0-.42-3.266-.841-3.266s-.42,5.237-.84,5.237-.42-13.116-.84-13.116-.42,1.982-.84,1.982-.42,3.738-.841,3.738-.42,7.352-.84,7.352-.42-8.931-.84-8.931-.421-1.262-.842-1.262-.42-.019-.84-.019-.421,3.166-.842,3.166-.42,1.033-.84,1.033-.421,8.065-.842,8.065-.421-7.157-.842-7.157-.42-6.566-.842-6.566-.42-2.6-.841-2.6-.42,10.018-.84,10.018-.421-4.894-.842-4.894-.42,5.524-.84,5.524-.42-7-.84-7-.42,4.587-.841,4.587-.42,5.218-.84,5.218-.42-10.337-.84-10.337-.42,14.995-.839,14.995-.42-6.588-.84-6.588-.42-8.085-.84-8.085-.419,12.2-.839,12.2-.42-11.129-.839-11.129c-.349,0-.409,10.723-.659,14.366h-.361c-.251-3.7-.311-14.693-.66-14.693-.419,0-.419,3.247-.839,3.247s-.419-7.846-.839-7.846-.419,8.2-.839,8.2-.419.111-.838.111-.42,3.055-.839,3.055-.42.562-.839.562-.419-3.783-.838-3.783S912.777.82,912.358.82s-.419,17.75-.838,17.75-.419-14.562-.839-14.562-.419,15.23-.838,15.23-.419-7.009-.838-7.009S908.585.984,908.166.984c-.331,0-.4,14.415-.62,20.51H907.1c-.214-5.77-.286-18.868-.613-18.868-.419,0-.419,13.965-.838,13.965s-.419-11.107-.838-11.107-.418,4.227-.837,4.227-.419-8.073-.838-8.073-.419,5.637-.838,5.637-.418.425-.837.425-.419-4.31-.837-4.31-.419,8.664-.838,8.664-.418-8.44-.837-8.44-.419-.759-.837-.759-.419,14.154-.837,14.154-.419-13.882-.837-13.882-.419.821-.837.821c-.37,0-.413,14.241-.708,17.545h-.341c-.225-1.617-.293-5.556-.625-5.556-.419,0-.419-.146-.837-.146s-.419-14.746-.837-14.746-.418,9.549-.837,9.549-.418,1.653-.836,1.653c-.313,0-.392,6.138-.587,9.245h-.532c-.172-2.453-.26-6.607-.554-6.607-.419,0-.419-14.479-.837-14.479s-.418,19.335-.836,19.335-.418-12.795-.837-12.795-.418,5.17-.836,5.17-.418-10.989-.836-10.989-.418,1.854-.836,1.854-.418,1.227-.836,1.227-.418,5.191-.836,5.191-.418,6.293-.836,6.293-.418-2.034-.836-2.034-.418,4.695-.836,4.695-.418-8.39-.836-8.39-.418,8.844-.836,8.844-.418-8-.836-8S876.788,12,876.37,12c-.385,0-.416,8.212-.745,9.49h-.192c-.318-1.091-.353-7.174-.733-7.174-.319,0-.395,4.876-.6,7.174h-.759c-.078-.244-.17-.435-.312-.435-.418,0-.418-19.54-.835-19.54s-.418,5.839-.836,5.839S870.94.044,870.524.044c-.345,0-.405,15.889-.651,21.45h-1.256c-.2-4.275-.279-13.352-.6-13.352-.418,0-.418,10.774-.836,10.774s-.417-3.592-.835-3.592-.417-12.561-.835-12.561-.418-1.8-.835-1.8-.418,10.156-.835,10.156-.418-7.952-.835-7.952-.418-.4-.835-.4-.418,16.93-.835,16.93c-.222,0-.326.931-.437,1.806h-.9c-.083-.389-.182-.7-.338-.7s-.245.31-.326.7h-.881c-.121-1.192-.223-2.583-.462-2.583-.418,0-.418-9.125-.835-9.125s-.417-7.052-.835-7.052c-.327,0-.4,13.1-.613,18.761h-1.476c-.1-1.3-.207-2.582-.413-2.582-.417,0-.417-4.2-.835-4.2s-.417-4.292-.833-4.292-.418-4.276-.835-4.276-.417,8.3-.835,8.3-.417-3.123-.833-3.123-.418-2.689-.835-2.689-.417,2.156-.835,2.156-.417-10.43-.833-10.43-.417,13.4-.835,13.4c-.276,0-.369,4.615-.523,7.732h-.643c-.141-2.688-.239-6.349-.5-6.349-.417,0-.417-2.594-.833-2.594-.291,0-.38,5.568-.547,8.943h-.548c-.185-4.1-.268-11.752-.573-11.752-.417,0-.417,6.511-.833,6.511s-.418-14.487-.835-14.487-.417,4.393-.833,4.393-.417-2.059-.835-2.059-.417,14-.833,14-.417-9.625-.833-9.625-.417.534-.835.534-.417.338-.833.338-.417-.388-.833-.388-.417,7.321-.834,7.321-.418-13.336-.835-13.336-.417,6.954-.833,6.954-.417-.524-.834-.524-.417-2.211-.835-2.211-.417,11.327-.833,11.327-.417-1.364-.833-1.364-.417-2.873-.833-2.873-.417,6.418-.835,6.418-.417-7.81-.833-7.81-.417-4.661-.833-4.661-.417-1.066-.833-1.066-.417-.143-.833-.143-.418-3.909-.835-3.909-.417,4.478-.833,4.478-.417,9.222-.833,9.222-.417-7.347-.833-7.347-.417,4.754-.834,4.754S819.22,9.25,818.8,9.25s-.418-6.235-.835-6.235-.417-1.263-.834-1.263-.417,12.635-.833,12.635-.417-1.549-.835-1.549-.417-6.424-.834-6.424-.417,7.19-.833,7.19-.417,7.695-.833,7.695-.417-3.457-.835-3.457-.417-11.3-.833-11.3-.417,9.752-.833,9.752-.417-2.952-.833-2.952-.417-8.41-.833-8.41-.418,16.2-.835,16.2-.417-14.633-.833-14.633-.417-5.009-.833-5.009-.418,16.251-.835,16.251-.417-4.628-.833-4.628S804.213,4.6,803.8,4.6s-.418,13.132-.835,13.132-.417-10.9-.833-10.9-.417,8.859-.835,8.859-.417-1.5-.833-1.5-.417-5.443-.833-5.443-.418,5.425-.835,5.425-.417,3.693-.833,3.693-.417-16.3-.835-16.3-.417.676-.833.676-.417,15.156-.835,15.156-.417,3.266-.833,3.266-.417-5.485-.835-5.485-.417,5.978-.833,5.978-.417-8.981-.835-8.981-.417-10.155-.833-10.155-.418,12.934-.835,12.934-.417.444-.835.444-.417,3.327-.833,3.327-.418-13.731-.835-13.731-.417,15.285-.835,15.285-.417-.633-.833-.633-.418-15.591-.835-15.591-.418,9.889-.835,9.889c-.274,0-.368,4.467-.518,7.557h-.536c-.218-6.418-.288-21.329-.616-21.329-.417,0-.417,16.925-.833,16.925s-.418-12.652-.835-12.652-.418,10.621-.835,10.621-.418-.212-.835-.212-.418.113-.835.113-.418-12.249-.835-12.249-.418,11.152-.835,11.152-.418-11.26-.835-11.26-.418,17.178-.835,17.178-.418-17.265-.836-17.265-.417,6.715-.835,6.715c-.368,0-.411,9.919-.7,12.263h-.272c-.283-2.147-.329-10.567-.694-10.567-.418,0-.418,4.39-.835,4.39s-.418-1.765-.836-1.765-.417-2.809-.835-2.809-.418,10.27-.835,10.27-.418-17.121-.836-17.121c-.385,0-.416,15.274-.746,17.6h-.191c-.319-2-.353-13.25-.733-13.25-.417,0-.417,3.381-.835,3.381-.3,0-.382,6.222-.555,9.869h-.508c-.211-5.433-.284-17.554-.608-17.554-.418,0-.418,6.521-.836,6.521s-.419,10.6-.811,11.032h-.062c-.381-.838-.393-14.484-.8-14.484s-.417-4.883-.835-4.883-.418,6.075-.836,6.075-.418,8.552-.836,8.552-.418,3.206-.836,3.206S757.471.393,757.054.393s-.418,13.457-.836,13.457-.418-5.379-.836-5.379c-.349,0-.406,9.809-.66,13.023h-.332c-.27-3.775-.321-16.918-.68-16.918-.418,0-.418,11.676-.836,11.676s-.418-1.325-.836-1.325-.418-9.9-.837-9.9-.418-4.89-.836-4.89-.418,11.039-.836,11.039-.419,6.507-.837,6.507-.418-2.44-.836-2.44-.418-9.6-.837-9.6c-.354,0-.407,12.116-.669,15.848h-.318c-.275-4.265-.325-19.784-.686-19.784-.418,0-.418,4.584-.836,4.584s-.419,5.483-.837,5.483-.419,5.81-.837,5.81-.418-7.866-.837-7.866-.418,4.715-.837,4.715c-.288,0-.377,4.344-.541,7.058h-1.2c-.348-1.592-.373-14.651-.766-14.651-.418,0-.418,6.32-.837,6.32s-.418,7.455-.837,7.455-.418-1.674-.837-1.674c-.214,0-.319,1.292-.427,2.551H735.1c-.231-5.9-.3-20.844-.633-20.844-.418,0-.418,2.287-.837,2.287S733.21,17.7,732.792,17.7s-.419-9.314-.838-9.314-.419,1.235-.837,1.235-.419,2.454-.838,2.454-.419.359-.838.359c-.306,0-.389,5.894-.575,9.063h-.5c-.2-3.775-.279-11.677-.6-11.677-.419,0-.419-8.772-.838-8.772s-.419,1.555-.838,1.555-.419.118-.838.118-.419.631-.838.631-.419.879-.838.879-.419,15.4-.838,15.4-.419-.109-.838-.109-.42-5.371-.839-5.371-.419,3.634-.838,3.634-.419-13.625-.839-13.625-.419,6.212-.838,6.212-.419-7.448-.839-7.448-.419,13.3-.838,13.3c-.285,0-.376,3.208-.537,5.273h-.515c-.225-4.031-.293-13.837-.627-13.837-.419,0-.419,12.356-.839,12.356s-.419-15.006-.839-15.006-.419,4-.838,4-.42,8.66-.84,8.66-.419-1.312-.839-1.312-.419,5.011-.839,5.011a.251.251,0,0,0-.189.129h-.87c-.22-2.787-.291-9.306-.62-9.306-.42,0-.42,3.9-.841,3.9s-.419-8.444-.839-8.444-.419-2.914-.839-2.914-.42-3.845-.839-3.845c-.375,0-.416,17.009-.719,20.609h-.262c-.284-2.913-.332-14.282-.7-14.282-.419,0-.419,7.086-.839,7.086s-.419,2.765-.838,2.765-.42-.83-.839-.83-.419,4.31-.838,4.31-.42-1.617-.839-1.617-.419-10.433-.838-10.433-.419,2.272-.839,2.272-.419,9.57-.838,9.57-.419-4.737-.838-4.737S695.469,3.78,695.05,3.78s-.419-2.254-.838-2.254-.419-.355-.838-.355-.419,7.348-.837,7.348-.419-.469-.838-.469c-.346,0-.406,9.962-.652,13.444h-.339c-.274-4.618-.325-21.225-.684-21.225-.419,0-.419,14.759-.838,14.759-.3,0-.389,4.2-.574,6.467h-.452c-.243-4.083-.3-15.569-.648-15.569-.419,0-.419,7.8-.838,7.8s-.418,1.219-.837,1.219-.418-3.724-.837-3.724-.418,1.516-.837,1.516-.418,1.019-.837,1.019-.418,1.48-.837,1.48-.418-9.33-.836-9.33-.419-2.616-.837-2.616S680.4,15.7,679.978,15.7c-.3,0-.384,3.688-.562,5.791h-.505c-.208-2.873-.283-9.111-.605-9.111-.418,0-.418-7.954-.836-7.954s-.418,4.805-.836,4.805S676.214.4,675.8.4s-.418,1.175-.836,1.175-.418,9.813-.836,9.813-.418,8.922-.836,8.922-.418-8.605-.836-8.605-.418-2.01-.836-2.01-.418,11.568-.836,11.568-.418-.753-.836-.753c-.2,0-.3.481-.4.984h-.605c-.256-3.7-.313-15.232-.664-15.232-.39,0-.416,13.444-.757,15.232H666.4c-.226-5.216-.293-18.154-.626-18.154-.418,0-.418,7.626-.836,7.626s-.417,4.1-.835,4.1-.418-2.126-.835-2.126-.418,3.488-.835,3.488c-.285,0-.376,3.086-.538,5.065h-1.445c-.157-2.856-.25-7.2-.531-7.2-.419,0-.419-4.268-.838-4.268-.3,0-.386,7.365-.567,11.466h-.551c-.175-3.795-.261-10.284-.558-10.284-.419,0-.419-3.549-.837-3.549s-.419-6.412-.838-6.412-.419,7.088-.837,7.088-.419-5.2-.838-5.2-.419,13.5-.837,13.5-.419-13.733-.838-13.733-.418,5.383-.837,5.383-.419-1.948-.838-1.948-.418,13.068-.837,13.068-.419-7.358-.837-7.358c-.355,0-.41,7.22-.673,9.442h-.3c-.285-2.922-.332-14.551-.7-14.551-.419,0-.419,14.071-.837,14.071S646.1,0,645.679,0s-.418,4.4-.837,4.4-.419,5.339-.837,5.339-.419-6.2-.838-6.2-.418-1.155-.837-1.155c-.369,0-.413,15.459-.706,19.108h-.333c-.233-2-.3-7.19-.637-7.19-.418,0-.418,6.559-.837,6.559S639.4,4.431,638.98,4.431s-.419,2.639-.837,2.639-.419,1.182-.838,1.182-.418-.489-.837-.489-.419,5.56-.837,5.56-.419-4.615-.837-4.615-.419,12.438-.838,12.438-.418-10.973-.837-10.973-.419,2.745-.837,2.745S631.863,16,631.445,16s-.419-14.45-.838-14.45-.418,13.681-.837,13.681-.419,6.063-.817,6.261h-.036c-.4-.39-.407-14.736-.821-14.736s-.419-6.021-.837-6.021S626.84,14.5,626.421,14.5s-.418,6.732-.837,6.732c-.085,0-.151.112-.208.267H624.5c-.2-3.811-.277-11.624-.594-11.624-.419,0-.419,6.988-.837,6.988s-.419-12.629-.838-12.629-.418,5.889-.837,5.889-.418-2.443-.837-2.443-.419,1.249-.837,1.249S619.3,2.1,618.887,2.1s-.419,9.2-.838,9.2-.418-5.987-.837-5.987-.418,14.086-.837,14.086-.418-18.067-.837-18.067-.419,5.27-.837,5.27-.419,3.315-.838,3.315-.418,6.433-.837,6.433-.418-13.962-.837-13.962-.419,2.542-.837,2.542-.419,6.376-.837,6.376-.419,2.576-.838,2.576-.418-10.8-.837-10.8S608.422,13,608,13s-.419-1.88-.837-1.88-.419,8.223-.838,8.223-.418-2.262-.837-2.262-.419-1.36-.837-1.36-.419-12.376-.837-12.376-.419-1.32-.838-1.32-.418,3.959-.837,3.959S601.722,21.3,601.3,21.3c-.08,0-.141.084-.2.2h-.832c-.241-4.815-.3-18.114-.646-18.114-.419,0-.419,3.6-.837,3.6s-.419,8.919-.838,8.919-.418-13.586-.837-13.586-.419,5.116-.837,5.116-.419,9.278-.838,9.278-.418-13.734-.837-13.734-.419,8.511-.837,8.511-.419-2.2-.838-2.2-.419,1.809-.837,1.809-.419,9.747-.838,9.747-.418-2.8-.837-2.8c-.286,0-.377,2.115-.539,3.457h-.457c-.269-3.947-.321-17.434-.679-17.434-.419,0-.419,16.225-.838,16.225s-.418-12.5-.837-12.5c-.321,0-.4,9.336-.6,13.707h-.5c-.185-3.516-.268-9.988-.573-9.988-.419,0-.419-2.187-.838-2.187s-.418,4.909-.837,4.909-.419-.359-.838-.359-.419,5.143-.837,5.143-.419-14.634-.838-14.634-.419-3.821-.838-3.821-.418.414-.837.414-.419,14.258-.838,14.258c-.269,0-.366,3.649-.511,6.264h-.69c-.126-1.994-.228-4.407-.474-4.407-.419,0-.419-7.846-.838-7.846s-.419,9.093-.838,9.093S574.92,7.157,574.5,7.157s-.419,10.321-.838,10.321-.419-1.114-.838-1.114-.419-5.616-.838-5.616-.419,1.931-.838,1.931S570.73.785,570.311.785c-.338,0-.4,14.945-.636,20.709h-.412c-.226-5.362-.294-18.541-.627-18.541-.371,0-.414,15.082-.71,18.541h-.284c-.271-2.677-.322-12.078-.682-12.078-.419,0-.419,3.544-.838,3.544s-.419,6.334-.838,6.334-.419.329-.838.329-.419-5.24-.838-5.24-.419,4.335-.838,4.335S562.35,6.6,561.931,6.6s-.419,3.874-.838,3.874-.42-10.21-.839-10.21c-.376,0-.414,17.648-.723,21.227H559c-.106-.324-.211-.65-.421-.65-.419,0-.419.315-.838.315s-.419-8.833-.838-8.833S556.48,17,556.061,17s-.419-8.95-.838-8.95-.419.451-.838.451-.419,5.209-.839,5.209-.419-11.648-.838-11.648c-.335,0-.4,13.9-.632,19.43h-.495c-.169-2.992-.258-7.922-.551-7.922s-.375,4.79-.533,7.922h-.553c-.2-4.81-.276-14.491-.591-14.491-.419,0-.419,4.418-.838,4.418s-.42-10.15-.839-10.15-.419,20.083-.838,20.083S546.417,3.246,546,3.246s-.419,5.74-.839,5.74-.419,3.906-.838,3.906-.42-9.621-.839-9.621-.419-.425-.839-.425S542.222,1.2,541.8,1.2c-.328,0-.4,14.117-.616,20.29h-.5c-.177-4.161-.263-11.439-.562-11.439-.42,0-.42-9.178-.839-9.178s-.419,17.379-.839,17.379-.419-3.367-.839-3.367-.419.193-.839.193-.419.709-.839.709-.419.673-.839.673S534.67,6.1,534.249,6.1c-.388,0-.417,13.407-.752,15.4h-.171c-.338-2.043-.366-16.137-.754-16.137-.42,0-.42,13.358-.839,13.358s-.42-5.587-.839-5.587-.419-6.844-.839-6.844-.419,4.138-.839,4.138-.419-8.456-.838-8.456-.42,8.586-.839,8.586-.419,8.522-.839,8.522-.419-8.265-.838-8.265-.42-1.485-.839-1.485-.419-7.6-.838-7.6-.42,9.529-.839,9.529-.419,5.387-.838,5.387c-.29,0-.38,2.993-.545,4.85h-.46c-.263-5.01-.318-21.4-.673-21.4-.419,0-.419,16.806-.838,16.806s-.42-15.214-.839-15.214-.419.165-.838.165-.419,9.9-.838,9.9-.419,1.376-.839,1.376-.419-6.72-.838-6.72-.419,5.881-.838,5.881c-.315,0-.393,6.155-.59,9.21h-.53c-.173-2.356-.261-6.361-.556-6.361-.419,0-.419,2.244-.838,2.244-.269,0-.366,2.393-.51,4.116h-.559c-.211-3.568-.284-11.432-.608-11.432-.381,0-.416,9.67-.733,11.432h-1.169c-.214-5.455-.286-17.777-.612-17.777-.419,0-.419,16.306-.838,16.306S507,1.95,506.576,1.95s-.419,4.122-.838,4.122-.419,11.037-.838,11.037-.418-14.14-.837-14.14-.419-.846-.838-.846-.419,5.888-.838,5.888-.419,11.518-.838,11.518-.418-15.409-.837-15.409-.419-1.4-.838-1.4-.419,2.753-.837,2.753-.419,5.837-.838,5.837-.419-9.017-.838-9.017-.418,17.108-.837,17.108-.419-6.51-.838-6.51-.419-8.662-.837-8.662-.419,4.24-.838,4.24-.418-4.741-.837-4.741-.419,11.225-.838,11.225-.418-1.785-.837-1.785S491.078.636,490.66.636s-.419,13.958-.838,13.958S489.4.533,488.985.533c-.334,0-.4,14.9-.627,20.961H487.8c-.135-2.172-.234-4.958-.49-4.958-.418,0-.418,2.963-.837,2.963-.208,0-.312.994-.417,2h-1.494c-.206-5.351-.281-16.755-.6-16.755-.418,0-.418,12.231-.837,12.231s-.418-9.856-.837-9.856c-.334,0-.4,10.226-.627,14.38h-.389c-.251-5.346-.31-21.307-.658-21.307-.419,0-.419,10.212-.837,10.212-.342,0-.405,8.106-.644,11.1h-.349c-.271-4.134-.322-18.689-.682-18.689-.418,0-.418,1.8-.837,1.8s-.418,6.6-.837,6.6-.418-9.724-.837-9.724-.418,16.139-.837,16.139-.418-1.994-.837-1.994-.418,1.531-.837,1.531-.418-13.9-.837-13.9-.418,16.06-.837,16.06-.418-18.6-.836-18.6-.419,19.712-.8,20.771h-.972c-.319-.858-.354-5.606-.735-5.606-.418,0-.418-.681-.837-.681-.285,0-.376,3.839-.537,6.287h-.559c-.189-3.3-.27-9.551-.579-9.551-.418,0-.418,5.169-.836,5.169s-.419-1.094-.837-1.094c-.368,0-.413,4.417-.7,5.477h-.21c-.345-2.159-.369-18.945-.761-18.945-.418,0-.418,8.708-.836,8.708s-.419-.659-.837-.659-.418.526-.837.526-.418,8.237-.837,8.237-.418-8.869-.836-8.869-.419,8.657-.837,8.657-.418-6.138-.837-6.138-.418-8.723-.836-8.723-.419,14.792-.837,14.792S454.253.722,453.834.722s-.418,11.237-.836,11.237-.419,6.874-.837,6.874-.418-8.118-.836-8.118-.419-7.022-.837-7.022-.418-2.325-.837-2.325-.418,7.938-.836,7.938-.418,4.192-.837,4.192-.418-6.912-.836-6.912-.419,3.687-.837,3.687-.418,1.193-.836,1.193c-.352,0-.409,7.605-.667,10.029h-.3c-.291-3.527-.335-18.371-.7-18.371-.419,0-.419,17.356-.837,17.356-.234,0-.338.538-.455,1.015h-.528c-.278-2.908-.327-13.748-.689-13.748-.418,0-.418,9.781-.836,9.781s-.419-4.379-.837-4.379S439.2.526,438.779.526s-.419,11.018-.837,11.018-.418,5.647-.836,5.647-.418-12.178-.837-12.178-.418,2.6-.836,2.6-.418,1.579-.837,1.579-.418,10.762-.836,10.762-.418.048-.836.048-.419-.582-.837-.582-.418.036-.836.036-.418,1.349-.837,1.349S430,3.116,429.579,3.116s-.418,5.124-.836,5.124-.419,11.941-.837,11.941-.418-9.366-.836-9.366-.418,2.7-.837,2.7c-.348,0-.406,5.977-.658,7.982h-.3c-.3-3.489-.342-19.854-.716-19.854-.419,0-.419,4.88-.837,4.88s-.418,12.594-.836,12.594-.418-15.782-.837-15.782-.418,8.073-.836,8.073-.418,8.822-.836,8.822-.419.6-.837.6S419.125,3,418.707,3s-.418,5.2-.836,5.2-.419,3.561-.837,3.561c-.29,0-.378,6.028-.545,9.73h-.833c-.074-.49-.164-.846-.294-.846-.418,0-.418-6.222-.836-6.222s-.418,6.616-.836,6.616S413.272.613,412.853.613s-.418,2.462-.836,2.462-.418,14.93-.836,14.93-.419-9.47-.837-9.47-.418,5.113-.836,5.113-.418-.475-.837-.475-.418,2.412-.836,2.412-.418,3.122-.836,3.122-.419,1.647-.837,1.647-.418-16.484-.836-16.484-.418,10.518-.837,10.518c-.335,0-.4,5.1-.632,7.106h-.374c-.258-2.68-.314-11.187-.666-11.187-.418,0-.418,3.633-.837,3.633s-.418,4.045-.836,4.045-.418-14.369-.836-14.369-.419,11.448-.837,11.448-.418-14-.836-14-.419,7.9-.837,7.9-.418,6.584-.836,6.584-.418,2.968-.837,2.968-.418-11.906-.836-11.906-.418-4-.836-4-.419,7.8-.837,7.8S393.2,7.4,392.782,7.4s-.419,6.783-.837,6.783-.418-.742-.836-.742S390.691.653,390.273.653c-.376,0-.414,17.4-.724,20.841h-.225c-.31-3.427-.347-20.656-.724-20.656-.418,0-.418,7.829-.836,7.829s-.418,6.658-.837,6.658-.418-8.429-.836-8.429-.418.691-.837.691-.418.788-.836.788-.418,6.676-.837,6.676-.418-10.677-.836-10.677-.419,14.6-.837,14.6-.418-3.762-.836-3.762-.419-1.4-.837-1.4-.418-9.836-.837-9.836-.418,12.316-.836,12.316-.418-9.579-.837-9.579-.418,1.227-.836,1.227-.419,6.122-.837,6.122-.418,4.588-.837,4.588-.418-3.237-.836-3.237-.419-5.839-.837-5.839-.418.175-.837.175-.418,2.2-.836,2.2-.419,4.474-.837,4.474-.418-11.433-.837-11.433-.418,2.914-.836,2.914-.419,12.135-.837,12.135-.418-5.73-.837-5.73-.418-1.558-.837-1.558-.418,6.7-.836,6.7c-.258,0-.357,1.161-.494,2.051h-.484c-.284-4.349-.331-21.4-.7-21.4-.418,0-.418,13.223-.837,13.223s-.418-5.152-.836-5.152c-.359,0-.411,10.33-.68,13.329h-2.794c-.3-.909-.34-4.922-.711-4.922-.418,0-.418-13.905-.837-13.905s-.418,6.358-.837,6.358-.418,3.6-.836,3.6-.419-10.018-.837-10.018-.419,1.7-.837,1.7-.419,16.313-.837,16.313-.419-15.946-.837-15.946-.419,12.308-.837,12.308-.419-9.908-.837-9.908-.419.056-.837.056c-.325,0-.4,9.9-.609,14.365h-1.165c-.322-2.807-.355-19.108-.738-19.108-.418,0-.418,16.246-.837,16.246s-.418-10.376-.837-10.376-.418-4.824-.837-4.824-.419,3.513-.837,3.513-.419,11.589-.837,11.589S343,.907,342.578.907c-.369,0-.412,16.663-.705,20.587h-.312c-.249-2.475-.31-9.738-.657-9.738s-.407,7.252-.655,9.738h-.317c-.29-3.849-.334-19.716-.7-19.716-.418,0-.418,18.185-.837,18.185s-.419-17.075-.837-17.075-.419,13.241-.838,13.241-.418-9.42-.837-9.42S335.461.19,335.043.19s-.419,5.695-.838,5.695S333.785.95,333.368.95s-.419,2.4-.838,2.4c-.357,0-.41,14.046-.679,18.147H331.3c-.113-.66-.218-1.365-.441-1.365-.418,0-.418-12.308-.837-12.308s-.419-1.977-.838-1.977-.418,11.444-.837,11.444-.419-2.282-.838-2.282-.419-1-.837-1S326.248.492,325.829.492s-.419,4.717-.838,4.717-.418-4.289-.837-4.289S323.735,21,323.316,21s-.419-16.224-.838-16.224-.419-3.639-.838-3.639-.418,3.618-.837,3.618-.419-.037-.838-.037-.419,9.711-.838,9.711-.419-2.377-.838-2.377-.419-.4-.838-.4c-.331,0-.4,6.936-.623,9.844h-.494c-.175-1.814-.262-4.931-.559-4.931-.419,0-.419,2.4-.838,2.4s-.419,1.666-.838,1.666-.419-2.382-.838-2.382-.419-3.676-.838-3.676S312,13.1,311.584,13.1s-.419-6.219-.838-6.219-.419,13.643-.839,13.643c-.189,0-.292.466-.388.973H308c-.208-3.113-.283-9.85-.605-9.85-.419,0-.419,1.815-.838,1.815s-.419-12.289-.838-12.289-.42,7.192-.839,7.192-.419-2.456-.838-2.456S303.619.533,303.2.533s-.419,5.181-.839,5.181-.419,15.032-.838,15.032-.419-3.172-.838-3.172-.42-15.9-.839-15.9-.419,9.819-.838,9.819-.42,7.71-.839,7.71c-.328,0-.4,1.591-.618,2.29h-1.2c-.285-3.973-.332-19.625-.7-19.625-.42,0-.42,7.474-.839,7.474s-.419,1.567-.839,1.567c-.313,0-.392,7.046-.589,10.584h-.441c-.241-5.523-.3-20.741-.647-20.741-.419,0-.419,14.72-.838,14.72s-.42-3.513-.839-3.513-.419-7.1-.838-7.1-.419,1.016-.839,1.016-.419,11.835-.838,11.835-.419-13.032-.838-13.032-.42,7.724-.839,7.724-.419.918-.838.918c-.317,0-.395,5.488-.594,8.17h-.743c-.084-.378-.182-.682-.34-.682-.42,0-.42-11.138-.839-11.138s-.419,8.252-.838,8.252-.419-7.35-.838-7.35-.419-.048-.838-.048-.419-.357-.838-.357-.419-1.508-.838-1.508-.419,11.212-.838,11.212-.419-17.711-.838-17.711-.419,19.169-.838,19.169-.419-6.512-.838-6.512c-.36,0-.411,5.2-.683,6.673h-.363c-.227-.955-.295-3.321-.63-3.321-.224,0-.327,1.718-.44,3.321h-.62c-.217-5.932-.288-19.528-.615-19.528-.419,0-.419,11.955-.838,11.955s-.419-9.111-.838-9.111-.419.029-.837.029-.419,10.957-.838,10.957-.419-11.721-.838-11.721-.419,16.65-.837,16.65-.419-4-.838-4-.419-10.521-.838-10.521-.418-.3-.837-.3-.419,7.082-.838,7.082-.419,8.118-.809,8.5h-1.05c-.247-4.462-.307-17.306-.653-17.306-.419,0-.419,8.293-.837,8.293s-.419-11.8-.838-11.8-.418,19.327-.837,19.327-.419-8.306-.837-8.306-.419-7.931-.838-7.931-.418,8.061-.837,8.061-.419-3.953-.837-3.953-.419-.842-.837-.842-.419,1.087-.838,1.087c-.345,0-.405,9.905-.652,13.365h-.4c-.221-2.679-.291-9.03-.622-9.03-.418,0-.418,7.474-.837,7.474S250.82,1.412,250.4,1.412s-.419,1.369-.837,1.369-.419,13.868-.837,13.868-.419-9.172-.837-9.172-.419,2.505-.837,2.505-.419-1.646-.837-1.646-.419-5.669-.837-5.669-.419,5.058-.837,5.058-.418-1.362-.837-1.362-.418.5-.837.5-.418-2.991-.837-2.991-.418,14.621-.836,14.621-.419,2.578-.837,2.578-.419-13.012-.837-13.012-.418,5.933-.837,5.933-.418.519-.837.519-.418,4.578-.836,4.578-.419-15.667-.837-15.667-.418,1.792-.837,1.792-.418,9.966-.836,9.966-.419-8.914-.837-8.914-.418,5.547-.836,5.547S232.41.832,231.992.832s-.418,4.184-.837,4.184-.418,6.86-.836,6.86-.418-9.334-.837-9.334-.418,11.23-.836,11.23-.418-3.694-.837-3.694-.418,11.323-.831,11.415h-.012c-.411-.047-.414-3.866-.83-3.866s-.418-.847-.836-.847-.418-6.479-.836-6.479-.419,9.543-.837,9.543-.418.457-.836.457S222.375.03,221.957.03s-.419,15.417-.837,15.417c-.341,0-.4,4.422-.643,6.046h-.347c-.272-2.215-.324-10.058-.682-10.058-.418,0-.418,1.591-.837,1.591s-.418-3.978-.836-3.978-.418-.176-.836-.176-.418,5.449-.836,5.449S215.686,2.1,215.267,2.1s-.418,12.615-.836,12.615-.418-4.436-.836-4.436-.418-5.3-.836-5.3-.418-4.561-.836-4.561-.418,13.2-.836,13.2S210.67,9.4,210.252,9.4c-.307,0-.389,7.9-.576,12.094h-.627c-.125-1.9-.226-4.148-.468-4.148-.418,0-.418-.909-.836-.909s-.419-7.811-.836-7.811-.419.95-.837.95-.418,3.321-.836,3.321-.418,5.667-.836,5.667-.418-15.889-.835-15.889-.418-.272-.836-.272-.418,10.754-.836,10.754-.418,6.467-.836,6.467-.418-13.816-.836-13.816-.418,13.173-.836,13.173-.418-.037-.836-.037-.418-11.714-.836-11.714c-.315,0-.393,9.593-.593,14.265h-1.3c-.219-4.01-.29-13.454-.618-13.454-.418,0-.418,4.655-.836,4.655-.383,0-.416,7.549-.742,8.8h-.161c-.353-2.02-.375-20-.769-20-.417,0-.417-.338-.835-.338S191.448,16.4,191.03,16.4s-.418,2.015-.836,2.015-.418-9.162-.836-9.162-.417-6.3-.835-6.3-.418,3.1-.836,3.1c-.352,0-.407,11.742-.666,15.443H185.79c-.212-4.085-.284-13.2-.609-13.2-.418,0-.418,6.24-.836,6.24s-.417-3.339-.835-3.339-.418-4.762-.836-4.762-.418.934-.836.934S181.423.445,181,.445s-.418,4.272-.836,4.272-.418,10.347-.835,10.347-.418-6.406-.836-6.406-.418.555-.836.555-.417-2.909-.835-2.909-.418-2.547-.836-2.547-.417,9.639-.835,9.639-.418.057-.836.057-.417-12.426-.835-12.426-.418,9.166-.836,9.166-.417-.782-.835-.782-.418,7.642-.836,7.642-.417-12.973-.835-12.973-.418,2.033-.836,2.033-.417,9.648-.835,9.648-.418,1.539-.836,1.539-.417-5.4-.835-5.4-.418-8.088-.835-8.088-.418-2.171-.836-2.171-.418,16.7-.835,16.7-.418-2.5-.836-2.5-.417,2.911-.835,2.911-.418-14.519-.835-14.519-.418,3.86-.836,3.86-.417-2.152-.835-2.152-.418,8.47-.835,8.47S158.871.17,158.454.17s-.418,18.445-.835,18.445-.418-16.537-.836-16.537-.417,14.356-.835,14.356-.418-14.515-.835-14.515-.418,8.955-.836,8.955-.417,4.73-.835,4.73-.418-6.733-.835-6.733-.418-1.845-.836-1.845c-.389,0-.416,12.761-.757,14.469h-.148c-.349-1.942-.373-18.252-.765-18.252-.418,0-.418,16.336-.835,16.336s-.418-16.828-.836-16.828-.417,17.784-.835,17.784-.418-10.841-.835-10.841-.418-2.113-.836-2.113-.417,13.076-.835,13.076-.417-8.929-.835-8.929c-.326,0-.4,6.777-.612,9.767h-.423c-.233-3.642-.3-13.131-.636-13.131-.417,0-.417-4.743-.835-4.743s-.418-2.886-.835-2.886-.418,6.543-.835,6.543-.418-4.113-.836-4.113-.417,14.547-.835,14.547-.418.242-.835.242-.418-12.265-.835-12.265-.418,11.514-.835,11.514-.418-8.113-.836-8.113-.417,5.185-.835,5.185-.418,3.18-.835,3.18-.418-6.821-.835-6.821-.418-5.54-.836-5.54-.417,12.21-.835,12.21-.417-9.506-.835-9.506-.418,10.529-.835,10.529-.418-9.77-.836-9.77-.417,11.789-.835,11.789S127.143.464,126.725.464s-.418,3.978-.835,3.978-.418,15.6-.835,15.6-.418-2.608-.835-2.608c-.325,0-.4,2.8-.61,4.06h-.374c-.277-2.419-.326-11.376-.687-11.376-.311,0-.39,7.52-.582,11.376h-1.753c-.049-.08-.1-.14-.17-.14-.417,0-.417-9.947-.835-9.947s-.417-6.47-.835-6.47-.418-2.768-.835-2.768-.418,18.07-.835,18.07-.418-3.419-.836-3.419-.417-10.531-.835-10.531-.417,3.823-.835,3.823-.418-.693-.835-.693-.418,7.8-.835,7.8-.418,4.1-.836,4.1S111.279,8.4,110.861,8.4s-.417,7.789-.835,7.789c-.257,0-.356,3-.492,5.3h-.559c-.22-5.907-.289-19.9-.618-19.9-.418,0-.418,18.743-.835,18.743s-.418-16.8-.836-16.8-.417.827-.835.827-.417,16.414-.835,16.414-.418-4.227-.835-4.227-.418-12.113-.836-12.113-.417,17.015-.835,17.015-.417-5.719-.835-5.719S101.26,3.78,100.843,3.78s-.418-.5-.836-.5c-.333,0-.4,12.993-.627,18.21h-.418c-.224-5.087-.292-17.521-.624-17.521-.418,0-.418,17.339-.835,17.339s-.418-3.945-.835-3.945-.418-12.209-.836-12.209S95.416,1.92,95,1.92s-.418,4.273-.835,4.273-.418,6.382-.836,6.382S92.911,5.9,92.493,5.9s-.417-.477-.835-.477-.418,8.386-.835,8.386-.418-5.33-.835-5.33-.418,5.987-.836,5.987-.418.428-.835.428-.418,6.6-.835,6.6-.418-14.576-.836-14.576c-.335,0-.4,10.464-.631,14.579h-.384c-.249-4.961-.308-19.541-.654-19.541-.388,0-.416,17.062-.751,19.541h-.169c-.335-2.513-.363-20.021-.751-20.021-.418,0-.418,4.659-.835,4.659s-.418,13.913-.836,13.913c-.163,0-.262.655-.348,1.449h-.958c-.09-.9-.191-1.674-.363-1.674-.418,0-.418.878-.836.878s-.417-7.082-.835-7.082-.418-1.241-.835-1.241-.418,3.84-.836,3.84-.418-9.329-.835-9.329-.418,10.362-.836,10.362-.417-5.53-.835-5.53-.418-5.556-.835-5.556c-.333,0-.4,10.891-.625,15.332h-.42C72.017,17.023,71.95,6,71.617,6s-.4,10.678-.608,15.493h-.558c-.143-2.258-.24-5.36-.505-5.36-.418,0-.418-9.93-.836-9.93s-.417,8.79-.835,8.79-.418-9.728-.835-9.728-.418,15-.836,15-.418-12.131-.835-12.131-.418,1.383-.836,1.383-.418,3.736-.835,3.736c-.3,0-.382,5.186-.555,8.24h-.5c-.219-4.942-.289-16.579-.617-16.579-.418,0-.418-3.454-.836-3.454s-.417,11.763-.835,11.763c-.282,0-.374,5-.532,8.27h-.551c-.2-5-.275-15.031-.588-15.031-.418,0-.418,9.124-.836,9.124S57.835,7,57.417,7s-.417,5.673-.835,5.673c-.29,0-.378,5.462-.545,8.825h-.559c-.182-3.986-.265-11.2-.567-11.2-.418,0-.418-8.252-.836-8.252s-.418,9.11-.836,9.11-.417,8.635-.835,8.635-.418-3.332-.836-3.332-.418-1.152-.835-1.152-.418,2.372-.836,2.372S49.482.769,49.064.769s-.418,11.472-.836,11.472c-.3,0-.385,5.942-.565,9.252h-.476c-.228-5.36-.295-18.838-.63-18.838-.418,0-.418,15.157-.836,15.157s-.418-.276-.835-.276-.418-12.082-.836-12.082-.418,14.812-.836,14.812S42.8,10.95,42.38,10.95c-.308,0-.39,6.9-.577,10.544H41.3c-.2-3.947-.274-11.805-.587-11.805-.418,0-.418,9.778-.836,9.778s-.418-.32-.836-.32c-.288,0-.377,1.448-.542,2.347h-.432c-.285-3.091-.332-15.421-.7-15.421-.417,0-.417-2.744-.835-2.744S36.113,12.4,35.7,12.4s-.418,4.3-.836,4.3-.418-1.853-.836-1.853c-.272,0-.368,3.914-.517,6.645h-.586c-.183-4.046-.265-11.423-.569-11.423-.418,0-.418,3.45-.836,3.45S31.1.682,30.68.682s-.418,1.693-.836,1.693-.418,10.186-.836,10.186-.418,8.787-.836,8.787-.417-16.289-.836-16.289S26.919,7.2,26.5,7.2s-.418,11.9-.836,11.9S25.247,6.4,24.829,6.4s-.418-4.893-.836-4.893-.418,5.568-.836,5.568S22.74.989,22.322.989s-.418,4.222-.836,4.222S21.068,21.4,20.65,21.4a.291.291,0,0,0-.208.1h-.767c-.285-3.279-.332-16.31-.7-16.31-.341,0-.4,11.9-.643,16.31h-.419c-.213-3.462-.285-11.267-.611-11.267-.418,0-.418-3.8-.836-3.8s-.418,6.84-.836,6.84-.418,5.332-.837,5.332-.418-7.6-.836-7.6-.418,10.123-.836,10.123c-.1,0-.166.156-.228.379h-.964c-.129-1.964-.23-4.4-.481-4.4-.418,0-.418-4.741-.836-4.741S10.2,6.417,9.781,6.417s-.419,2.036-.837,2.036-.418,10.441-.836,10.441S7.69,9.3,7.272,9.3,6.853,4.9,6.435,4.9s-.418,6.983-.836,6.983-.419,1.645-.837,1.645-.418-8.341-.836-8.341S3.509,20.207,3.09,20.207,2.672.234,2.254.234s-.418,9.517-.837,9.517S1,13.8.581,13.8C.271,13.8.191,6.334,0,2.461V208.3c4.077.35,1410.723.127,1440,0V18.093c-.137-.022-.218-.047-.218-.073" fill="#1d1d1d"/></svg>